# xmcd
#
# Track frame offsets: 
#        150
#        15732
#        33850
#        51240
#        70765
#        91235
#        108972
#        124827
#        137440
#        155412
#        169007
#        183737
#
# Disc length: 2699 seconds
#
# Revision: 1
# Processed by: cddbd v1.5.2PL0 Copyright (c) Steve Scherf et al.
# Submitted via: ExactAudioCopy v0.99pb5
#
DISCID=970a890c
DTITLE=Warrant - Born Again
DYEAR=2006
DGENRE=Hard Rock
TTITLE0=Devil's Juice
TTITLE1=Dirty Jack
TTITLE2=Bourbon County Line
TTITLE3=Hell CA
TTITLE4=Angles
TTITLE5=Love Strikes Like Lightning
TTITLE6=Glimmer
TTITLE7=Roller Coaster
TTITLE8=Down In Diamonds
TTITLE9=Velvet Noose
TTITLE10=Roxy
TTITLE11=Good Times
EXTD=YEAR: 2006
EXTT0=
EXTT1=
EXTT2=
EXTT3=
EXTT4=
EXTT5=
EXTT6=
EXTT7=
EXTT8=
EXTT9=
EXTT10=
EXTT11=
PLAYORDER=
